<svg xmlns="http://www.w3.org/2000/svg" viewBox="0 0 353.6 421.34"><defs><style>.cls-1{fill:#f49ec4;}.cls-2{fill:#594a42;}.cls-3{fill:#e45e42;}.cls-4{fill:#e5aeae;}</style></defs><title>Asset 2</title><g id="Layer_2" data-name="Layer 2"><g id="megafone"><path class="cls-1" d="M181.86,102.81c1.83-3.53,8.55-8.32,11.49-11,4.08-3.69,12.45-10.82,16.71-14.3,5.95-4.86,18.12-14.28,24.27-18.89,4.09-3.08,12.36-9.09,16.47-12.13,5.63-4.17,16.92-12.45,22.47-16.73,4.3-3.31,12.82-10,17-13.53,2.19-1.84,6.45-5.7,8.55-7.66,1.56-1.46,4.55-4.55,6.13-6A12.49,12.49,0,0,1,307.61.27a9.26,9.26,0,0,1,4.47,0,15.9,15.9,0,0,1,3.44,2.45,71.9,71.9,0,0,1,5.62,5c1.23,1.3,3.4,4.17,4.47,5.62,1.71,2.33,5,7.11,6.51,9.57,2.49,4,7.16,12.26,9.32,16.47,1.11,2.16,3.17,6.56,4.08,8.81,1.67,4.1,4.68,12.45,5.87,16.72a77.74,77.74,0,0,1,1.92,10.6,67.36,67.36,0,0,1,0,12.38,20.25,20.25,0,0,1-1.72,4.21c-.5.86-3.94,4.44-4.79,4.73a5,5,0,0,1-3.07-.26,14,14,0,0,0-1.46-.51c-1-.41-2.2.6-3.26.89-2.47.68-7.46,1.85-10,2.43-5.57,1.3-16.73,3.85-22.34,5-5.14,1-28.71,4.68-31.4,5-3,.32-31.58,3.48-38.17,4.08-2.2.2-13.08-.13-13.79.9-3.19,4.61,5,12.28,5.79,17.82.08.54,1,5.31.77,5.79a7.38,7.38,0,0,1-2.73,2,14.33,14.33,0,0,1-3.19,1,48,48,0,0,1-5.23,0c-.74,0-2.33.42-2.93,0-5.19-3.71-4.8-18.8-8.31-24.13-.6-.91-2.16-2.75-3.23-2.94s-3.11,1.33-4.17,1.71c-1.54.54-4.69,1.42-6.26,1.87a35.57,35.57,0,0,1-4.59,1.28,7.52,7.52,0,0,1-3.07-.26,10.45,10.45,0,0,1-2.93-3.45,23.17,23.17,0,0,1-2.17-7A12.71,12.71,0,0,1,181.86,102.81Z"/><path class="cls-2" d="M304.46,15.78a130.68,130.68,0,0,0,4.42,14.13c1.27,3.25,4.48,9.44,6,12.6,1.72,3.66,5.05,11,6.81,14.68,1.48,3.08,4.52,9.2,6.13,12.21,1.22,2.29,3.75,6.82,5.1,9,1.53,2.49,4.83,7.3,6.47,9.7.88,1.29,2.34,4.17,3.58,5.11a4.34,4.34,0,0,0,2.38.85c.54-.09,1.33-1,1.7-1.36a15.13,15.13,0,0,0,2.38-3.57,28.33,28.33,0,0,0,1-6.81,64.36,64.36,0,0,0-.3-12.34c-.42-2.73-3.62-12.76-4.47-15.39-1.37-4.2-10.41-21.72-11.68-23.8S321.16,11.69,318.25,8.64c-1.87-2-5.32-6.49-7.83-7.49a3.9,3.9,0,0,0-2.22,0A7.75,7.75,0,0,0,306,3.36a15.63,15.63,0,0,0-1.53,3.06,17.93,17.93,0,0,0-.85,4.09A29.68,29.68,0,0,0,304.46,15.78Z"/></g><g id="mulher"><path id="hair" class="cls-3" d="M156.09,135.67a2.58,2.58,0,0,1,1.22-1.08c2.05-.78,6.73.82,8.77,0,.79-.32,1.86-1.77,2.46-2.38a21,21,0,0,0,2.9-3.57,17,17,0,0,0,1.1-3.83,98.79,98.79,0,0,0,.51-10.47c.08-3,.2-9,0-12a68.21,68.21,0,0,0-1.1-8.43,56,56,0,0,0-2.47-7.23c-.61-1.38-2-4.06-2.72-5.36-1.3-2.26-4.11-6.65-5.62-8.77-.63-.88-2-2.58-2.68-3.4a38.72,38.72,0,0,0-3.36-3.75,47.82,47.82,0,0,0-5.19-3.23,54.53,54.53,0,0,0-5.28-2.81A42.26,42.26,0,0,0,138,57.57a37.81,37.81,0,0,0-6.64-.34A40.14,40.14,0,0,0,123.18,59a48.6,48.6,0,0,0-5.7,2.81,54,54,0,0,0-6.21,4.25,84.17,84.17,0,0,0-6.81,7.32c-1,1.17-2.91,3.57-3.75,4.85-1.47,2.27-4.09,7-5.27,9.45-1,2.13-2.74,6.57-3.66,8.75-.86,2-2.81,6-3.49,8.1-.5,1.54-1.05,4.73-1.45,6.3-.35,1.39-1.34,4.11-1.53,5.53-.37,2.7-.77,8.28,0,10.89.48,1.63,2.58,4.4,3.66,5.71a32.48,32.48,0,0,0,3.49,4c1,.75,3.19,2.31,4.42,2.21s2.63-2,3.58-2.55a45.46,45.46,0,0,1,4.59-2.13,21.45,21.45,0,0,1,3.15-1.11,22.93,22.93,0,0,1,5.79-.17,8.38,8.38,0,0,1,1.87.68c.7.38,1.85,1.52,2.56,1.87a16.32,16.32,0,0,0,5.1,1.62c1.38,0,4-1.22,5.36-1.36,5.75-.59,17.32,1.57,23.07,1,1.09-.1,3.71-.07,4.25-1C156.25,136,156.07,135.76,156.09,135.67Z"/><path id="face" class="cls-4" d="M118.33,136l18.55,16.43,19.21-16.8s-4.23,1.65-6.53.45a8.76,8.76,0,0,1-2.89-3.14s5.61-6.59,7-9.11a50.93,50.93,0,0,0,3.91-11c.86-4.39,1.08-13.41.77-17.87a71.92,71.92,0,0,0-1.79-9.87,40.56,40.56,0,0,0-2.12-6.3,38.46,38.46,0,0,0-4.26-6,35.77,35.77,0,0,0-4.08-3.49c-.67-.49-2.81-1.79-2.81-1.79s-.89,2.9-1.28,3.83a37.33,37.33,0,0,1-2.13,4,65.35,65.35,0,0,1-4.17,5.62,60.81,60.81,0,0,1-5.1,5.19c-1.06.93-4.73,3.55-4.73,3.55s-1.4,1.39-6.2,3.13a28.65,28.65,0,0,1-7.12,1.32s-1.53,7-1.79,9.53c-.6,5.66-.22,5.09.26,10.73.26,3,3.43,8.79,5.36,11.23a24.63,24.63,0,0,0,3.92,3.92,64.12,64.12,0,0,0,6.47,3.15,11.3,11.3,0,0,1-.6,2,5.11,5.11,0,0,1-1.79,1.87C122.94,137.24,118.33,136,118.33,136Z"/><path class="cls-4" d="M214.84,116.12c0-.63-2-.21-2.55,0a10.51,10.51,0,0,0-2.47,2c-.6.55-1.67,1.78-2.21,2.39a15.66,15.66,0,0,0-1.79,2,13.49,13.49,0,0,0-.68,2.21,18.53,18.53,0,0,0-.85,3.23,23.93,23.93,0,0,0,1.1,5.71c.17.25,1.62,2.29,1.88,2.55a25.06,25.06,0,0,0,2.89,2.13,14.44,14.44,0,0,0,3,1.27c.62.13,2.21.54,2.55,0,.67-1-1.28-3.44-1.7-4.59a48.23,48.23,0,0,1-1.79-5.7,16.07,16.07,0,0,1-.25-4.26,13.91,13.91,0,0,1,1.1-2.47c.39-.79,1.29-2.32,1.62-3.15a7.08,7.08,0,0,0,.51-1.78c0-.5-.42-1.46-.42-2"/><polygon class="cls-4" points="223.22 115.49 220.59 115.7 218.88 116.76 217.65 119.02 216.8 123.06 217.35 126.47 219.35 129.36 222.03 132.89 224.03 134.04 226.54 134.64 228.63 133.87 229.69 133.15 229.91 128.59 228.8 124.38 226.8 119.87 223.22 115.49"/><path class="cls-4" d="M10,240.1c2,0,4.35,4,6,5.11.88.58,3.21,1,3.76,1.85a3.57,3.57,0,0,1,0,2.17c-.44,1.53-2.61,4-3.44,5.36-.65,1.07-1.27,4.06-2.49,4.34-.34.08-1-.48-1.15-.76a3.5,3.5,0,0,1-.45-1.92c.12-.61,1.1-2.09.58-2.42-.34-.22-1,.72-1.26,1l-.16.16a37.23,37.23,0,0,0-2.8,3.23c-.51.81-1.11,2.65-1.53,3.51a24.81,24.81,0,0,1-1.72,3.32,4.51,4.51,0,0,1-2.3,1.6,3.91,3.91,0,0,1-2-1.15,5,5,0,0,1-1-1.92c-.21-1.27.65-3.82.81-5.1.13-1,.19-3,.38-4a35.42,35.42,0,0,1,1.28-4,28.39,28.39,0,0,1,1.28-2.94A36,36,0,0,1,7,242.72C7.68,242,9,240.09,10,240.1Z"/><path class="cls-4" d="M75.27,317.27s-.78,8.29-1.41,11-4.59,14.13-5,15.19c-1.34,3.76-4.76,11-6.25,14.68-2.1,5.2-5.7,15.85-8,20.94-1.27,2.74-4.27,8-5.75,10.6-1.33,2.35-4.45,6.82-5.49,9.32a22.93,22.93,0,0,0-1.15,4.34,30.6,30.6,0,0,0,0,7.53,18.73,18.73,0,0,0,1.53,3.57c.47.88,1.3,2.85,2.18,3.32.7.38,2.4.12,3.19,0a6.07,6.07,0,0,0,2.55-.76c1.05-1,1.51-4,2-5.37.43-1.09,1.27-3.29,1.79-4.34A41.07,41.07,0,0,1,58,402.93c1.39-1.9,4.71-5.25,6.26-7,2.78-3.19,8.2-9.7,11-12.89,2.33-2.68,7.2-7.85,9.44-10.6,1.91-2.33,5.53-7.16,7.15-9.7,2.6-4.05,7-12.64,9.07-17,1.51-3.16,4.34-9.58,5.49-12.89s3.83-14,3.83-14Z"/><path class="cls-4" d="M139,318.55s2.95,19,4.08,25.28c.38,2.08,1.34,6.2,1.66,8.29.66,4.23,1.46,12.74,1.92,17,.53,4.88,1.51,14.64,1.79,19.54s-.58,14.9.38,19.74a33.16,33.16,0,0,0,3.23,8.34,14.69,14.69,0,0,0,3.41,3.66,10.4,10.4,0,0,0,3,.84,12.23,12.23,0,0,0,3.31,0A6.07,6.07,0,0,0,164,420a5.17,5.17,0,0,0,1.19-2.64c0-1.29-2-3.4-2.21-4.68a14,14,0,0,1,.43-3.32c.26-1.67,1-5,1.27-6.64.34-2.05.89-6.18,1.11-8.25.3-2.8.77-8.42.94-11.24.3-5.25.51-15.76.68-21,.22-7.15.79-21.45,1.1-28.59.2-4.43.85-17.71.85-17.71"/></g></g></svg>